<svg width="161" height="108" viewBox="0 0 161 108" fill="none" xmlns="http://www.w3.org/2000/svg">
<g clip-path="url(#clip0_3_411)">
<path d="M0 44.5664C0 31.3535 10.7972 0 24.1161 0C37.4351 0 48.2323 31.3535 48.2323 44.5664C48.2304 50.9102 45.6888 56.9936 41.1664 61.4787C36.6439 65.9639 30.5109 68.4835 24.1161 68.4835C17.7213 68.4835 11.5884 65.9639 7.0659 61.4787C2.54344 56.9936 0.00183373 50.9102 0 44.5664Z" fill="#0363ED"/>
<path d="M24.1163 102.771C24.0637 102.771 24.0132 102.75 23.9761 102.713C23.9389 102.676 23.918 102.626 23.918 102.574V20.0919C23.918 20.0397 23.9389 19.9897 23.9761 19.9528C24.0132 19.9159 24.0637 19.8952 24.1163 19.8952C24.1689 19.8952 24.2193 19.9159 24.2565 19.9528C24.2937 19.9897 24.3146 20.0397 24.3146 20.0919V102.574C24.3146 102.626 24.2937 102.676 24.2565 102.713C24.2193 102.75 24.1689 102.771 24.1163 102.771Z" fill="#3F3D56"/>
<path d="M24.116 36.0157C24.0899 36.0157 24.0641 36.0106 24.0401 36.0007C24.016 35.9908 23.9941 35.9763 23.9757 35.958L14.4306 26.489C14.412 26.4708 14.3972 26.4491 14.3871 26.4251C14.3769 26.4012 14.3717 26.3755 14.3716 26.3496C14.3715 26.3237 14.3766 26.2979 14.3866 26.274C14.3965 26.25 14.4112 26.2282 14.4297 26.2098C14.4482 26.1915 14.4701 26.1769 14.4943 26.1671C14.5185 26.1572 14.5444 26.1521 14.5706 26.1522C14.5967 26.1523 14.6226 26.1575 14.6467 26.1676C14.6708 26.1776 14.6927 26.1923 14.7111 26.2108L24.2562 35.6798C24.2839 35.7074 24.3028 35.7424 24.3105 35.7806C24.3181 35.8187 24.3142 35.8583 24.2992 35.8942C24.2842 35.9302 24.2587 35.9609 24.2261 35.9825C24.1935 36.0041 24.1552 36.0156 24.116 36.0156V36.0157Z" fill="#3F3D56"/>
<path d="M24.1163 52.4085C24.077 52.4085 24.0387 52.3969 24.0061 52.3753C23.9735 52.3537 23.9481 52.323 23.9331 52.287C23.9181 52.2511 23.9141 52.2115 23.9218 52.1734C23.9294 52.1352 23.9483 52.1002 23.976 52.0727L39.9611 36.2149C39.9795 36.1964 40.0013 36.1818 40.0254 36.1717C40.0495 36.1617 40.0754 36.1565 40.1016 36.1564C40.1277 36.1563 40.1536 36.1613 40.1778 36.1712C40.202 36.1811 40.2239 36.1956 40.2424 36.214C40.2609 36.2323 40.2756 36.2541 40.2855 36.2781C40.2955 36.3021 40.3006 36.3278 40.3005 36.3537C40.3004 36.3796 40.2952 36.4053 40.2851 36.4292C40.2749 36.4531 40.2602 36.4748 40.2416 36.4931L24.2565 52.3508C24.2381 52.3691 24.2162 52.3837 24.1922 52.3935C24.1681 52.4034 24.1423 52.4085 24.1163 52.4085Z" fill="#3F3D56"/>
<path d="M9.76978 107.924C9.80426 107.95 9.84049 107.974 9.87532 108H39.4407C40.02 105.672 40.2245 103.341 39.3592 101.316C38.1263 98.4317 34.4774 96.6312 31.5765 97.8699C30.8892 98.1713 30.2905 98.6413 29.8367 99.2355C28.703 97.2224 26.6695 95.7045 24.3222 95.7062C21.3814 95.7083 18.9364 98.094 18.1385 100.85C16.8536 98.6983 14.3156 97.1947 11.835 97.8415C7.68592 98.9233 6.37539 105.322 9.76978 107.924Z" fill="#F2F2F2"/>
<path d="M126.318 62.4179C126.318 52.9234 134.082 30.3934 143.659 30.3934C153.236 30.3934 161 52.9234 161 62.4179C160.997 66.9784 159.169 71.351 155.917 74.5747C152.665 77.7983 148.256 79.6092 143.659 79.6092C139.062 79.6092 134.653 77.7983 131.401 74.5747C128.149 71.351 126.321 66.9784 126.318 62.4179Z" fill="#E6E6E6"/>
<path d="M143.659 104.242C143.64 104.242 143.621 104.239 143.604 104.232C143.587 104.225 143.571 104.214 143.558 104.201C143.545 104.188 143.534 104.172 143.527 104.155C143.52 104.138 143.516 104.12 143.516 104.101V44.831C143.516 44.7936 143.531 44.7578 143.558 44.7314C143.585 44.705 143.621 44.6901 143.659 44.6901C143.696 44.6901 143.733 44.705 143.759 44.7314C143.786 44.7578 143.801 44.7936 143.801 44.831V104.101C143.801 104.12 143.798 104.138 143.79 104.155C143.783 104.172 143.773 104.188 143.76 104.201C143.746 104.214 143.731 104.225 143.713 104.232C143.696 104.239 143.677 104.242 143.659 104.242Z" fill="#3F3D56"/>
<path d="M143.659 56.2735C143.64 56.2736 143.622 56.2699 143.604 56.2628C143.587 56.2557 143.571 56.2453 143.558 56.2321L136.695 49.4279C136.668 49.4014 136.653 49.3654 136.653 49.3279C136.653 49.2904 136.668 49.2544 136.695 49.2279C136.721 49.2014 136.758 49.1865 136.795 49.1865C136.833 49.1865 136.869 49.2015 136.896 49.228L143.76 56.0322C143.78 56.052 143.793 56.0772 143.799 56.1046C143.804 56.1321 143.801 56.1605 143.791 56.1863C143.78 56.2121 143.762 56.2342 143.738 56.2497C143.715 56.2653 143.687 56.2736 143.659 56.2735Z" fill="#3F3D56"/>
<path d="M143.659 68.0531C143.63 68.0531 143.603 68.0448 143.579 68.0293C143.556 68.0138 143.538 67.9917 143.527 67.9658C143.516 67.94 143.513 67.9116 143.519 67.8842C143.524 67.8567 143.538 67.8315 143.558 67.8118L155.052 56.4167C155.079 56.3902 155.115 56.3753 155.153 56.3752C155.191 56.3752 155.227 56.3901 155.254 56.4166C155.281 56.4431 155.296 56.4791 155.296 56.5166C155.296 56.5541 155.281 56.5901 155.254 56.6166L143.76 68.0117C143.746 68.0248 143.731 68.0352 143.713 68.0423C143.696 68.0494 143.677 68.0531 143.659 68.0531Z" fill="#3F3D56"/>
<path d="M133.343 107.945C133.368 107.964 133.394 107.981 133.419 108H154.678C155.095 106.327 155.242 104.652 154.619 103.197C153.733 101.124 151.109 99.8306 149.023 100.721C148.529 100.937 148.099 101.275 147.772 101.702C146.957 100.255 145.495 99.1647 143.807 99.1659C141.692 99.1674 139.934 100.882 139.36 102.862C138.436 101.316 136.612 100.235 134.828 100.7C131.844 101.478 130.902 106.075 133.343 107.945Z" fill="#F2F2F2"/>
<path d="M83.7834 68.0044C85.2466 70.8763 83.7178 74.9224 80.5221 75.8309C79.6233 76.0864 78.6048 76.0596 77.8133 75.5211C77.1598 75.0764 76.6882 74.2902 76.7504 73.4899C76.8701 71.9497 78.847 71.3774 80.1057 71.8745C81.8101 72.5477 82.5734 74.5312 82.8118 76.1965C83.1033 78.2324 82.703 80.3359 81.9011 82.217C80.2957 85.9827 77.1181 88.9166 73.9681 91.4351C70.7359 94.0152 67.1937 96.1878 63.4226 97.9031C62.949 98.1188 62.472 98.327 61.9918 98.5279C61.9241 98.5678 61.875 98.6325 61.855 98.708C61.835 98.7836 61.8459 98.8639 61.8851 98.9316C61.9263 98.9977 61.9915 99.0456 62.0673 99.0653C62.143 99.085 62.2235 99.075 62.2921 99.0375C66.4402 97.2956 70.3366 95.0146 73.879 92.2546C77.3079 89.585 80.7681 86.4341 82.4784 82.3653C83.331 80.337 83.7147 78.0968 83.3661 75.9137C83.0727 74.0759 82.1513 72.0423 80.2925 71.3164C78.8262 70.7436 76.7823 71.3472 76.2612 72.9274C75.9747 73.7961 76.2713 74.7356 76.8383 75.4226C77.1486 75.7848 77.5346 76.0758 77.9695 76.2753C78.4044 76.4748 78.8778 76.5781 79.357 76.578C81.2693 76.6174 83.0192 75.4001 83.9797 73.8203C84.8845 72.3368 85.16 70.5581 84.7457 68.8736C84.6389 68.4697 84.4884 68.0784 84.2971 67.7065C84.1243 67.3675 83.6109 67.6659 83.7834 68.0044Z" fill="#CCCCCC"/>
<path d="M116.725 103.732L114.587 104.481L110.659 96.6572L113.814 95.5525L116.725 103.732Z" fill="#A0616A"/>
<path d="M112.844 104.41L116.967 102.966L117.883 105.541L111.165 107.894C111.044 107.556 110.992 107.197 111.012 106.839C111.031 106.481 111.121 106.13 111.277 105.807C111.433 105.483 111.652 105.193 111.921 104.954C112.19 104.714 112.503 104.529 112.844 104.41Z" fill="#2F2E41"/>
<path d="M93.5111 105.803L91.2442 105.803L90.166 97.1284L93.5119 97.1286L93.5111 105.803Z" fill="#A0616A"/>
<path d="M89.6249 105.16H93.997V107.891H86.8721C86.8721 107.533 86.9433 107.178 87.0816 106.846C87.22 106.515 87.4227 106.214 87.6783 105.96C87.934 105.707 88.2374 105.506 88.5714 105.368C88.9054 105.231 89.2634 105.16 89.6249 105.16Z" fill="#2F2E41"/>
<path d="M93.3015 103.256C93.2266 103.256 93.1521 103.247 93.0796 103.228L89.7362 102.387C89.5322 102.336 89.3531 102.216 89.2303 102.046C89.1076 101.877 89.0493 101.67 89.0657 101.462L92.2607 60.1007L92.3595 60.1082L92.2607 60.1007C92.3288 59.2427 92.7085 58.4385 93.3295 57.8375C93.9504 57.2365 94.7702 56.8796 95.6364 56.8333L105.741 56.313L107.44 82.2695L117.517 100.273C117.58 100.386 117.617 100.51 117.627 100.638C117.636 100.766 117.617 100.895 117.572 101.015C117.526 101.135 117.455 101.244 117.363 101.334C117.271 101.424 117.16 101.493 117.038 101.536L112.396 103.189C112.186 103.265 111.955 103.259 111.749 103.173C111.543 103.088 111.377 102.928 111.285 102.726L99.4347 77.2678C99.4083 77.2109 99.3642 77.1639 99.309 77.1335C99.2538 77.1031 99.1903 77.0909 99.1276 77.0987C99.065 77.1065 99.0065 77.1339 98.9605 77.1769C98.9146 77.2199 98.8837 77.2762 98.8722 77.3378L94.1764 102.531C94.1384 102.734 94.0302 102.917 93.8705 103.05C93.7108 103.182 93.5096 103.255 93.3015 103.256Z" fill="#2F2E41"/>
<path d="M82.214 66.5303C82.3216 66.2826 82.4825 66.0614 82.6856 65.8821C82.8887 65.7028 83.1289 65.5699 83.3894 65.4927C83.6499 65.4155 83.9242 65.3959 84.1932 65.4352C84.4621 65.4746 84.7191 65.572 84.9459 65.7205L88.4668 63.3605L90.4343 65.1333L85.415 68.3968C85.1382 68.7584 84.7373 69.0066 84.2883 69.0946C83.8393 69.1825 83.3734 69.1041 82.9788 68.874C82.5843 68.6439 82.2885 68.2783 82.1475 67.8463C82.0066 67.4144 82.0302 66.9461 82.214 66.5303L82.214 66.5303Z" fill="#A0616A"/>
<path d="M101.355 40.5556C104.045 40.5556 106.225 38.3924 106.225 35.7239C106.225 33.0555 104.045 30.8922 101.355 30.8922C98.665 30.8922 96.4844 33.0555 96.4844 35.7239C96.4844 38.3924 98.665 40.5556 101.355 40.5556Z" fill="#A0616A"/>
<path d="M94.728 57.9248C94.4566 57.9243 94.1887 57.8645 93.9433 57.7497C93.6978 57.635 93.4808 57.468 93.3077 57.2608C93.1345 57.0535 93.0095 56.8109 92.9414 56.5504C92.8734 56.2898 92.864 56.0175 92.9138 55.7529L93.764 51.2451C92.8566 47.9766 97.4787 45.0949 97.6763 44.9735L100.56 43.8764L100.596 43.9683L100.56 43.8764C101.102 43.6706 101.687 43.6011 102.263 43.6741C102.838 43.7471 103.387 43.9604 103.859 44.295C104.331 44.6295 104.713 45.0749 104.969 45.5913C105.226 46.1077 105.349 46.6791 105.329 47.2544L104.98 57.1674L94.8697 57.9195C94.8223 57.9231 94.775 57.9248 94.728 57.9248Z" fill="#0363ED"/>
<path d="M98.9474 88.8346C96.7268 88.8086 94.5106 88.6329 92.3141 88.3085L92.2212 88.2941L92.2308 88.2013C92.4056 86.508 96.5235 46.7013 97.4145 43.8954C97.6448 43.1703 98.361 42.6004 99.5432 42.2016C103.259 40.9486 107.433 42.8068 109.045 46.4323C109.638 47.77 109.93 49.2196 109.901 50.6805L109.151 85.7239L109.072 85.7387C109.051 85.7426 106.976 86.1451 104.235 87.902C103.12 88.6168 101.052 88.8346 98.9474 88.8346Z" fill="#3F3D56"/>
<path opacity="0.05098" d="M104.507 50.6985C107.083 55.0376 105.784 57.3482 103.346 61.776C101.994 64.232 97.8234 67.2695 95.8697 65.317C93.916 63.3645 95.4601 60.7101 96.3085 58.0142C97.1569 55.3184 98.9818 53.0986 100.887 51.0932C102.245 49.6634 105.049 50.8372 104.507 50.6985Z" fill="black"/>
<path d="M87.7543 67.6762C87.5578 67.676 87.3668 67.6115 87.211 67.4928C87.0551 67.374 86.9431 67.2076 86.8922 67.0193L86.2738 64.7255C86.2275 64.5516 86.2355 64.3678 86.2967 64.1984C86.3579 64.029 86.4695 63.882 86.6167 63.7769L96.6282 56.6709L97.9773 49.0689C98.0684 48.5553 98.2664 48.0661 98.5586 47.6325C98.8507 47.1988 99.2307 46.8303 99.6742 46.5504C100.118 46.2704 100.615 46.0851 101.135 46.0063C101.655 45.9275 102.185 45.9569 102.693 46.0926C103.201 46.2283 103.674 46.4674 104.083 46.7946C104.493 47.1218 104.829 47.53 105.071 47.9932C105.312 48.4564 105.454 48.9644 105.487 49.4849C105.52 50.0055 105.444 50.5271 105.262 51.0166L102.411 58.7129C101.854 60.2247 100.728 61.4637 99.2704 62.1703L88.1473 67.5853C88.0251 67.645 87.8906 67.6761 87.7543 67.6762Z" fill="#3F3D56"/>
<path d="M99.2982 33.8896C99.0641 34.3636 98.6634 34.7363 98.1716 34.9376C97.6798 35.1389 97.1308 35.1549 96.6279 34.9826C96.125 34.8103 95.703 34.4615 95.4413 34.002C95.1796 33.5425 95.0962 33.0039 95.2069 32.4877C95.4136 31.524 95.9126 30.6462 96.6369 29.9721C97.3611 29.2979 98.276 28.8599 99.2586 28.7167C100.241 28.5735 101.244 28.7321 102.134 29.1711C103.023 29.61 103.755 30.3085 104.232 31.1725C105.774 30.1032 108.193 30.6433 109.124 32.2645C110.055 33.8856 109.29 36.2259 107.577 36.9961C106.725 37.3794 106.788 38.8593 107.67 39.1694C107.965 39.2729 108.219 39.4648 108.399 39.7184C108.579 39.9721 108.674 40.2749 108.673 40.5848C108.671 40.8948 108.572 41.1965 108.39 41.4482C108.207 41.6999 107.951 41.8891 107.655 41.9895C106.545 42.3663 105.414 42.7471 104.241 42.7766C103.068 42.806 101.825 42.4296 101.085 41.5266C100.345 40.6236 100.293 39.1415 101.167 38.3642C101.61 37.9508 101.905 37.4055 102.007 36.8108C102.109 36.2161 102.013 35.6045 101.734 35.0688C101.151 34.0144 99.5921 33.2945 99.2982 33.8896Z" fill="#2F2E41"/>
<path d="M67.8426 106.952C67.6158 106.951 67.3931 106.892 67.197 106.779C67.001 106.666 66.8384 106.503 66.7258 106.308C66.6132 106.113 66.5545 105.892 66.5557 105.667C66.5569 105.442 66.6179 105.221 66.7326 105.027V105.027L68.5366 101.971L70.761 103.264L68.957 106.319C68.8431 106.512 68.6802 106.672 68.4847 106.783C68.2892 106.894 68.0678 106.952 67.8426 106.952Z" fill="#0363ED"/>
<path d="M74.9219 99.9683C75.798 99.9683 76.5083 99.2637 76.5083 98.3946C76.5083 97.5254 75.798 96.8208 74.9219 96.8208C74.0457 96.8208 73.3354 97.5254 73.3354 98.3946C73.3354 99.2637 74.0457 99.9683 74.9219 99.9683Z" fill="#0363ED"/>
<path d="M60.8627 106.952C60.6359 106.951 60.4132 106.892 60.2171 106.779C60.021 106.666 59.8584 106.503 59.7458 106.308C59.6332 106.113 59.5745 105.891 59.5757 105.667C59.5769 105.442 59.6379 105.221 59.7527 105.027L61.5566 101.971L63.781 103.264L61.9771 106.319C61.8631 106.512 61.7003 106.672 61.5048 106.783C61.3093 106.894 61.0879 106.952 60.8627 106.952Z" fill="#0363ED"/>
<path d="M71.2492 104.909H63.2559C62.168 104.908 61.1251 104.479 60.3559 103.716C59.5867 102.953 59.1541 101.918 59.1528 100.839V99.6343C59.1533 99.2596 59.3035 98.9003 59.5706 98.6353C59.8378 98.3703 60.1999 98.2212 60.5777 98.2208H71.2492C72.1433 98.2208 73.0007 98.5731 73.6329 99.2003C74.2652 99.8275 74.6203 100.678 74.6203 101.565C74.6203 102.452 74.2652 103.303 73.6329 103.93C73.0007 104.557 72.1433 104.909 71.2492 104.909Z" fill="#3F3D56"/>
<path d="M70.8705 107.992C70.5288 107.992 70.2011 107.857 69.9595 107.617C69.7179 107.377 69.5819 107.052 69.5815 106.713V103.172H72.1595V106.713C72.1591 107.052 72.0231 107.377 71.7815 107.617C71.5399 107.857 71.2122 107.992 70.8705 107.992Z" fill="#3F3D56"/>
<path d="M63.39 107.992C63.0483 107.992 62.7207 107.857 62.479 107.617C62.2374 107.377 62.1015 107.052 62.1011 106.713V103.172H64.679V106.713C64.6786 107.052 64.5427 107.377 64.301 107.617C64.0594 107.857 63.7318 107.992 63.39 107.992Z" fill="#3F3D56"/>
<path d="M61.6054 93.4271H58.4326V89.2959C58.4326 88.8785 58.5998 88.4782 58.8973 88.1831C59.1948 87.8879 59.5983 87.7221 60.019 87.7221C60.4398 87.7221 60.8433 87.8879 61.1408 88.1831C61.4383 88.4782 61.6054 88.8785 61.6054 89.2959V93.4271Z" fill="#0363ED"/>
<path d="M61.3539 99.2798H56.1064C55.8031 99.2795 55.5123 99.1598 55.2979 98.947C55.0834 98.7343 54.9628 98.4459 54.9624 98.145V95.4183C54.9635 94.4602 55.3477 93.5416 56.0306 92.8641C56.7135 92.1866 57.6395 91.8055 58.6053 91.8044H59.4425C60.2525 91.8053 61.0291 92.125 61.6019 92.6932C62.1747 93.2614 62.4969 94.0318 62.4978 94.8354V98.145C62.4975 98.4459 62.3769 98.7343 62.1624 98.947C61.948 99.1598 61.6572 99.2795 61.3539 99.2798Z" fill="#3F3D56"/>
<path d="M61.6056 93.4271H59.4243V88.8041C59.4243 88.5171 59.5392 88.2419 59.7438 88.039C59.9483 87.8361 60.2257 87.7221 60.515 87.7221C60.8042 87.7221 61.0816 87.8361 61.2862 88.039C61.4907 88.2419 61.6056 88.5171 61.6056 88.8041V93.4271Z" fill="#3F3D56"/>
<path d="M61.0618 99.2459H55.311C54.8903 99.2459 54.4868 99.0801 54.1893 98.785C53.8917 98.4898 53.7246 98.0895 53.7246 97.6721C53.7246 97.2547 53.8917 96.8544 54.1893 96.5593C54.4868 96.2642 54.8903 96.0984 55.311 96.0984H61.0618V99.2459Z" fill="#3F3D56"/>
<path d="M53.8733 98.3077C54.0786 98.3077 54.2451 98.0104 54.2451 97.6438C54.2451 97.2771 54.0786 96.9798 53.8733 96.9798C53.6679 96.9798 53.5015 97.2771 53.5015 97.6438C53.5015 98.0104 53.6679 98.3077 53.8733 98.3077Z" fill="#0363ED"/>
<path d="M125.008 108H49.4556C49.403 108 49.3526 107.979 49.3154 107.942C49.2782 107.905 49.2573 107.855 49.2573 107.803C49.2573 107.751 49.2782 107.701 49.3154 107.664C49.3526 107.627 49.403 107.607 49.4556 107.607H125.008C125.061 107.607 125.111 107.627 125.149 107.664C125.186 107.701 125.207 107.751 125.207 107.803C125.207 107.855 125.186 107.905 125.149 107.942C125.111 107.979 125.061 108 125.008 108Z" fill="#3F3D56"/>
</g>
<defs>
<clipPath id="clip0_3_411">
<rect width="161" height="108" fill="white"/>
</clipPath>
</defs>
</svg>
