<svg width="141" height="142" viewBox="0 0 141 142" fill="none" xmlns="http://www.w3.org/2000/svg">
<path d="M35.5679 136.265C35.4123 136.272 35.2583 136.231 35.1267 136.148C34.9951 136.064 34.8923 135.943 34.8322 135.799C34.7721 135.655 34.7577 135.497 34.7908 135.345C34.8239 135.193 34.903 135.054 35.0174 134.949C35.0365 134.872 35.0503 134.818 35.0694 134.742C34.9205 134.364 34.6621 134.039 34.3272 133.808C33.9923 133.578 33.5962 133.453 33.1898 133.449C32.7833 133.445 32.3849 133.563 32.0458 133.787C31.7066 134.011 31.4421 134.331 31.2861 134.706C30.3858 136.813 29.2207 138.993 29.8001 141.313C25.9728 133.204 27.2744 123.118 32.9307 116.183C34.4941 115.322 35.7614 113.793 36.0913 112.017C35.3175 112.279 34.3527 111.65 34.9345 110.835C35.1867 110.523 35.4413 110.214 35.6935 109.903C32.7542 106.774 29.2521 111.692 32.4874 115.915C31.429 117.242 30.5123 118.675 29.7521 120.192C29.9276 118.581 29.7181 116.952 29.1408 115.438C28.5556 114.027 27.4588 112.838 26.493 111.618C25.3187 110.132 22.9017 110.818 22.7437 112.704C23.8275 113.06 23.9683 114.625 22.7286 114.839C23.0533 118.348 25.3466 121.573 28.5052 123.112C27.3387 126.384 26.8833 129.866 27.1691 133.328C26.6116 129.282 22.2676 128.301 19.2313 126.693C19.0381 126.569 18.813 126.504 18.5834 126.506C18.3538 126.508 18.1298 126.576 17.9385 126.703C17.7473 126.83 17.5972 127.01 17.5064 127.221C17.4157 127.432 17.3883 127.664 17.4276 127.89C17.8467 128.061 18.2478 128.272 18.625 128.522C18.8018 128.641 18.9374 128.811 19.0134 129.01C19.0894 129.209 19.102 129.427 19.0495 129.633C18.997 129.839 18.8819 130.024 18.72 130.163C18.5581 130.301 18.3574 130.386 18.1454 130.406C19.6758 134.192 23.6327 136.735 27.6966 136.721C28.0872 138.417 28.653 140.069 29.3851 141.648H35.4167C35.4384 141.581 35.4578 141.512 35.4773 141.445C34.919 141.48 34.3585 141.447 33.8083 141.346C35.2854 139.597 36.4277 138.705 35.5681 136.265L35.5679 136.265Z" fill="#DADBE7"/>
<path d="M89.3415 136.265C89.4971 136.272 89.6511 136.231 89.7827 136.148C89.9143 136.064 90.0171 135.943 90.0772 135.799C90.1372 135.655 90.1517 135.497 90.1186 135.345C90.0855 135.193 90.0064 135.054 89.892 134.949C89.8728 134.872 89.8591 134.818 89.8399 134.742C89.9888 134.364 90.2473 134.039 90.5822 133.808C90.9171 133.578 91.3131 133.453 91.7196 133.449C92.1261 133.445 92.5244 133.563 92.8636 133.787C93.2028 134.011 93.4673 134.331 93.6233 134.706C94.5236 136.813 95.6887 138.993 95.1092 141.313C98.9366 133.204 97.635 123.118 91.9787 116.183C90.4152 115.322 89.148 113.793 88.8181 112.017C89.5919 112.279 90.5566 111.65 89.9748 110.835C89.7227 110.523 89.4681 110.214 89.2159 109.903C92.1552 106.774 95.6573 111.692 92.422 115.915C93.4804 117.242 94.3971 118.675 95.1573 120.192C94.9817 118.581 95.1913 116.952 95.7686 115.438C96.3538 114.027 97.4506 112.838 98.4164 111.618C99.5907 110.132 102.008 110.818 102.166 112.704C101.082 113.06 100.941 114.625 102.181 114.839C101.856 118.348 99.5628 121.573 96.4042 123.112C97.5706 126.384 98.0261 129.866 97.7403 133.328C98.2978 129.282 102.642 128.301 105.678 126.693C105.871 126.569 106.096 126.504 106.326 126.506C106.556 126.508 106.78 126.576 106.971 126.703C107.162 126.83 107.312 127.01 107.403 127.221C107.494 127.432 107.521 127.664 107.482 127.89C107.063 128.061 106.662 128.272 106.284 128.522C106.108 128.641 105.972 128.811 105.896 129.01C105.82 129.209 105.807 129.427 105.86 129.633C105.912 129.839 106.028 130.024 106.189 130.163C106.351 130.301 106.552 130.386 106.764 130.406C105.234 134.192 101.277 136.735 97.2128 136.721C96.8222 138.417 96.2564 140.069 95.5243 141.648H89.4926C89.471 141.581 89.4515 141.512 89.4321 141.445C89.9904 141.48 90.5509 141.447 91.1011 141.346C89.624 139.597 88.4816 138.705 89.3413 136.265L89.3415 136.265Z" fill="#DADBE7"/>
<path d="M91.5782 137.16L88.9806 137.751L85.4648 128.016L89.2987 127.144L91.5782 137.16Z" fill="#FFB6B6"/>
<path d="M92.2862 139.848L84.2982 141.665L84.2753 141.564C84.0877 140.74 84.2353 139.875 84.6857 139.159C85.1361 138.444 85.8523 137.936 86.6768 137.749L86.677 137.749L87.8842 136.31L90.8585 136.797L91.5558 136.639L92.2862 139.848Z" fill="#2F2E41"/>
<path d="M133.481 89.7097L134.909 91.9576L126.915 98.5341L124.807 95.216L133.481 89.7097Z" fill="#FFB6B6"/>
<path d="M135.777 88.1411L140.168 95.0541L140.081 95.1096C139.367 95.5628 138.502 95.7139 137.677 95.5298C136.852 95.3457 136.133 94.8414 135.68 94.1278L135.68 94.1276L133.919 93.4733L133.381 90.5088L132.998 89.9054L135.777 88.1411Z" fill="#2F2E41"/>
<path d="M50.6796 65.675L50.0381 61.9577L59.7919 57.5548L61.8983 53.8266C61.8303 53.4995 61.8541 53.1599 61.967 52.8454C62.0799 52.5309 62.2776 52.2537 62.5382 52.0445C62.7988 51.8352 63.1122 51.7021 63.4437 51.6597C63.7753 51.6173 64.1121 51.6674 64.417 51.8044C64.7219 51.9414 64.9829 52.1599 65.1714 52.4359C65.3598 52.7119 65.4683 53.0346 65.4848 53.3683C65.5013 53.702 65.4251 54.0338 65.2649 54.327C65.1046 54.6202 64.8663 54.8635 64.5764 55.0298L61.1113 60.3851L50.6796 65.675Z" fill="#A0616A"/>
<path d="M47.7148 62.6362L52.1073 60.3932L53.27 64.7577L50.219 67.0185L47.7148 62.6362Z" fill="#0363ED"/>
<path d="M37.8583 136.822L40.5141 136.822L41.7775 126.581L37.8577 126.581L37.8583 136.822Z" fill="#A0616A"/>
<path d="M41.3979 137.061V135.261L40.6997 135.304L37.8575 135.472L37.1997 135.512L36.6969 141.54L36.6699 141.864H38.5557L38.6163 141.543L38.8902 140.084L39.5974 141.543L39.7523 141.864H44.7519C45.0494 141.862 45.3342 141.743 45.5444 141.532C45.7545 141.322 45.8731 141.037 45.8744 140.739C46.0855 139.754 41.9277 137.624 41.3979 137.061Z" fill="#2F2E41"/>
<path d="M6.33249 96.1815L5.71338 98.7635L15.3805 102.379L16.2942 98.5689L6.33249 96.1815Z" fill="#A0616A"/>
<path d="M5.48512 99.5667L7.23598 99.9864L7.3573 99.2977L7.85624 96.4956L7.97032 95.8467L2.2237 93.9524L1.9156 93.8509L1.47591 95.684L1.77396 95.8178L3.12913 96.4242L1.54522 96.7715L1.19691 96.8473L0.0312036 101.707C-0.0363327 101.997 0.013158 102.302 0.168939 102.555C0.324719 102.808 0.574206 102.99 0.863221 103.061C1.77241 103.496 4.81362 99.9504 5.48512 99.5667Z" fill="#2F2E41"/>
<path d="M41.9648 70.5459L38.5463 68.9484L31.7291 77.1956L27.5767 78.2454C27.2789 78.0937 26.9449 78.0272 26.6117 78.0533C26.2784 78.0793 25.9589 78.197 25.6883 78.3932C25.4178 78.5895 25.2068 78.8566 25.0786 79.1652C24.9504 79.4738 24.91 79.8118 24.9619 80.1419C25.0139 80.472 25.156 80.7813 25.3728 81.0357C25.5895 81.2901 25.8723 81.4796 26.1901 81.5834C26.5078 81.6872 26.848 81.7012 27.1732 81.6238C27.4984 81.5464 27.7958 81.3807 28.0327 81.1449L34.1131 79.2132L41.9648 70.5459Z" fill="#A0616A"/>
<path d="M90.4298 40.016C89.7052 40.016 88.9969 39.8012 88.3944 39.3988C87.7919 38.9963 87.3223 38.4243 87.045 37.7551C86.7677 37.0859 86.6951 36.3495 86.8365 35.639C86.9779 34.9286 87.3268 34.276 87.8392 33.7638C88.3516 33.2515 89.0044 32.9027 89.7151 32.7614C90.4258 32.6201 91.1624 32.6926 91.8319 32.9698C92.5013 33.247 93.0735 33.7165 93.4761 34.3188C93.8787 34.921 94.0936 35.6291 94.0936 36.3535C94.0925 37.3245 93.7061 38.2555 93.0193 38.9421C92.3324 39.6287 91.4012 40.0149 90.4298 40.016ZM90.4298 33.1114C89.7884 33.1114 89.1613 33.3015 88.628 33.6578C88.0946 34.014 87.6789 34.5204 87.4334 35.1128C87.188 35.7052 87.1237 36.3571 87.2489 36.986C87.374 37.615 87.6829 38.1927 88.1365 38.6461C88.5901 39.0995 89.168 39.4083 89.7971 39.5334C90.4262 39.6585 91.0784 39.5943 91.671 39.3489C92.2636 39.1035 92.7702 38.6879 93.1265 38.1548C93.4829 37.6216 93.6731 36.9948 93.6731 36.3535C93.6721 35.4939 93.3301 34.6698 92.7221 34.062C92.1141 33.4542 91.2897 33.1123 90.4298 33.1114Z" fill="#E6E6E6"/>
<path d="M90.1711 37.7333C90.1638 37.7333 90.1564 37.7331 90.149 37.7327C90.084 37.7296 90.0204 37.7124 89.9626 37.6824C89.9048 37.6524 89.8542 37.6102 89.8142 37.5588L89.2371 36.8171C89.2006 36.7703 89.1738 36.7167 89.158 36.6595C89.1423 36.6023 89.138 36.5426 89.1453 36.4837C89.1527 36.4249 89.1716 36.368 89.2009 36.3165C89.2302 36.2649 89.2694 36.2196 89.3163 36.1832L89.3371 36.167C89.3839 36.1306 89.4375 36.1037 89.4947 36.0879C89.5519 36.0722 89.6117 36.0679 89.6706 36.0752C89.7295 36.0826 89.7864 36.1015 89.838 36.1308C89.8896 36.1602 89.9349 36.1994 89.9713 36.2463C90.0005 36.2837 90.0374 36.3143 90.0795 36.3362C90.1216 36.3581 90.1679 36.3706 90.2153 36.3729C90.2627 36.3752 90.31 36.3672 90.354 36.3496C90.398 36.3319 90.4377 36.305 90.4704 36.2705L91.6422 35.0339C91.7247 34.947 91.8383 34.8964 91.958 34.8931C92.0778 34.8899 92.194 34.9343 92.2811 35.0165L92.3003 35.0348C92.3434 35.0756 92.378 35.1245 92.4022 35.1786C92.4264 35.2328 92.4396 35.2912 92.4412 35.3505C92.4429 35.4098 92.4327 35.4689 92.4115 35.5243C92.3903 35.5797 92.3583 35.6303 92.3175 35.6734L90.499 37.5922C90.4568 37.6368 90.406 37.6723 90.3496 37.6965C90.2932 37.7208 90.2325 37.7333 90.1711 37.7333Z" fill="#E6E6E6"/>
<path d="M72.1403 84.3581C71.4157 84.3581 70.7073 84.1433 70.1048 83.7408C69.5023 83.3384 69.0327 82.7664 68.7554 82.0972C68.4781 81.4279 68.4056 80.6915 68.547 79.9811C68.6883 79.2706 69.0373 78.618 69.5496 78.1058C70.062 77.5936 70.7148 77.2448 71.4255 77.1035C72.1362 76.9622 72.8729 77.0347 73.5423 77.3119C74.2118 77.5891 74.784 78.0585 75.1866 78.6608C75.5891 79.2631 75.804 79.9712 75.804 80.6956C75.8029 81.6666 75.4166 82.5975 74.7297 83.2842C74.0429 83.9708 73.1116 84.357 72.1403 84.3581ZM72.1403 77.4534C71.4988 77.4534 70.8718 77.6436 70.3384 77.9998C69.8051 78.3561 69.3894 78.8624 69.1439 79.4549C68.8984 80.0473 68.8342 80.6992 68.9593 81.3281C69.0845 81.957 69.3934 82.5347 69.8469 82.9882C70.3005 83.4416 70.8784 83.7504 71.5076 83.8755C72.1367 84.0006 72.7888 83.9364 73.3814 83.691C73.9741 83.4456 74.4806 83.03 74.837 82.4968C75.1933 81.9637 75.3836 81.3368 75.3836 80.6956C75.3826 79.836 75.0406 79.0119 74.4325 78.4041C73.8245 77.7963 73.0002 77.4544 72.1403 77.4534Z" fill="#E6E6E6"/>
<path d="M71.8818 82.0754C71.8744 82.0754 71.8671 82.0751 71.8597 82.0748C71.7947 82.0716 71.7311 82.0545 71.6733 82.0244C71.6155 81.9944 71.5649 81.9523 71.5249 81.9009L70.9478 81.1592C70.9113 81.1123 70.8845 81.0588 70.8687 81.0016C70.853 80.9444 70.8487 80.8847 70.856 80.8258C70.8634 80.7669 70.8823 80.7101 70.9116 80.6585C70.9409 80.607 70.9801 80.5617 71.027 80.5252L71.0478 80.5091C71.0946 80.4726 71.1482 80.4458 71.2054 80.43C71.2626 80.4143 71.3224 80.41 71.3813 80.4173C71.4402 80.4247 71.4971 80.4436 71.5487 80.4729C71.6003 80.5022 71.6456 80.5415 71.682 80.5883C71.7111 80.6257 71.748 80.6564 71.7901 80.6783C71.8323 80.7001 71.8786 80.7126 71.926 80.7149C71.9734 80.7172 72.0207 80.7093 72.0647 80.6916C72.1087 80.674 72.1484 80.647 72.1811 80.6126L73.3529 79.3759C73.4354 79.2891 73.549 79.2385 73.6687 79.2352C73.7885 79.232 73.9047 79.2763 73.9918 79.3586L74.011 79.3769C74.0541 79.4177 74.0887 79.4665 74.1129 79.5207C74.1371 79.5749 74.1503 79.6333 74.1519 79.6926C74.1535 79.7519 74.1434 79.8109 74.1222 79.8663C74.101 79.9217 74.069 79.9724 74.0282 80.0155L72.2097 81.9343C72.1675 81.9788 72.1167 82.0143 72.0603 82.0386C72.0039 82.0629 71.9432 82.0754 71.8818 82.0754Z" fill="#E6E6E6"/>
<path d="M31.9875 34.9723C31.2628 34.9723 30.5545 34.7575 29.952 34.3551C29.3495 33.9527 28.8799 33.3807 28.6026 32.7114C28.3253 32.0422 28.2528 31.3058 28.3941 30.5954C28.5355 29.8849 28.8844 29.2323 29.3968 28.7201C29.9092 28.2079 30.562 27.8591 31.2727 27.7178C31.9834 27.5765 32.7201 27.649 33.3895 27.9262C34.059 28.2034 34.6312 28.6728 35.0338 29.2751C35.4363 29.8774 35.6512 30.5855 35.6512 31.3099C35.6501 32.2809 35.2638 33.2118 34.5769 33.8984C33.8901 34.585 32.9588 34.9713 31.9875 34.9723ZM31.9875 28.0677C31.346 28.0677 30.719 28.2579 30.1856 28.6141C29.6522 28.9704 29.2365 29.4767 28.9911 30.0692C28.7456 30.6616 28.6814 31.3135 28.8065 31.9424C28.9316 32.5713 29.2405 33.149 29.6941 33.6024C30.1477 34.0559 30.7256 34.3646 31.3547 34.4897C31.9839 34.6148 32.636 34.5506 33.2286 34.3052C33.8213 34.0599 34.3278 33.6443 34.6842 33.1111C35.0405 32.578 35.2308 31.9511 35.2308 31.3099C35.2298 30.4503 34.8878 29.6262 34.2797 29.0184C33.6717 28.4106 32.8473 28.0687 31.9875 28.0677Z" fill="#E6E6E6"/>
<path d="M31.729 32.6897C31.7216 32.6897 31.7142 32.6894 31.7069 32.6891C31.6418 32.6859 31.5782 32.6688 31.5205 32.6387C31.4627 32.6087 31.4121 32.5666 31.3721 32.5152L30.795 31.7734C30.7585 31.7266 30.7316 31.6731 30.7159 31.6159C30.7002 31.5587 30.6958 31.499 30.7032 31.4401C30.7105 31.3812 30.7294 31.3244 30.7588 31.2728C30.7881 31.2212 30.8273 31.176 30.8742 31.1395L30.8949 31.1234C30.9418 31.0869 30.9953 31.0601 31.0526 31.0443C31.1098 31.0286 31.1696 31.0242 31.2285 31.0316C31.2874 31.039 31.3442 31.0578 31.3958 31.0872C31.4474 31.1165 31.4927 31.1558 31.5292 31.2026C31.5583 31.24 31.5952 31.2707 31.6373 31.2926C31.6794 31.3144 31.7257 31.3269 31.7731 31.3292C31.8205 31.3315 31.8678 31.3236 31.9119 31.3059C31.9559 31.2883 31.9956 31.2613 32.0283 31.2269L33.2001 29.9902C33.2826 29.9034 33.3961 29.8528 33.5159 29.8495C33.6357 29.8462 33.7518 29.8906 33.8389 29.9729L33.8581 29.9912C33.9012 30.032 33.9359 30.0808 33.96 30.135C33.9842 30.1892 33.9975 30.2476 33.9991 30.3069C34.0007 30.3662 33.9906 30.4252 33.9694 30.4806C33.9481 30.536 33.9162 30.5867 33.8754 30.6297L32.0569 32.5486C32.0147 32.5931 31.9638 32.6286 31.9075 32.6529C31.8511 32.6772 31.7903 32.6897 31.729 32.6897Z" fill="#E6E6E6"/>
<path d="M49.6652 34.2554C50.646 34.2554 51.4411 33.1896 51.4411 31.8749C51.4411 30.5602 50.646 29.4944 49.6652 29.4944C48.6845 29.4944 47.8894 30.5602 47.8894 31.8749C47.8894 33.1896 48.6845 34.2554 49.6652 34.2554Z" fill="#E6E6E6"/>
<path d="M70.1761 71.3914C69.3642 71.9322 68.5333 70.6451 69.3607 70.1284C70.1726 69.5876 71.0035 70.8747 70.1761 71.3914Z" fill="#E6E6E6"/>
<path d="M65.5029 28.0616C66.78 28.0616 67.8154 27.0266 67.8154 25.7499C67.8154 24.4732 66.78 23.4382 65.5029 23.4382C64.2258 23.4382 63.1904 24.4732 63.1904 25.7499C63.1904 27.0266 64.2258 28.0616 65.5029 28.0616Z" fill="#A2F6BA"/>
<path opacity="0.3" d="M73.5912 38.4177L86.7498 0L72.3009 37.9578C72.2294 38.0479 72.1805 38.1537 72.1581 38.2665C72.1357 38.3793 72.1406 38.4958 72.1723 38.6063C72.2039 38.7168 72.2615 38.8182 72.3402 38.9021C72.4189 38.9859 72.5165 39.0498 72.6248 39.0884C72.7332 39.127 72.8492 39.1393 72.9632 39.1241C73.0772 39.1089 73.1859 39.0668 73.2804 39.0013C73.3749 38.9357 73.4524 38.8485 73.5064 38.747C73.5605 38.6455 73.5896 38.5326 73.5912 38.4177H73.5912Z" fill="#F3F3F7"/>
<path d="M60.3092 85.2216C61.5518 85.2216 62.5591 84.2146 62.5591 82.9725C62.5591 81.7303 61.5518 80.7234 60.3092 80.7234C59.0666 80.7234 58.0593 81.7303 58.0593 82.9725C58.0593 84.2146 59.0666 85.2216 60.3092 85.2216Z" fill="#F2F2F2"/>
<path d="M38.5183 83.8304C38.5183 83.8304 32.9094 87.4815 34.3925 89.9076C34.4437 89.9912 27.6927 98.9044 27.6927 98.9044L14.9485 98.0957L14.4995 102.36L25.8453 105.645C25.8453 105.645 28.6209 107.683 30.7652 105.437C32.9094 103.191 40.0516 96.3132 40.0516 96.3132L40.3961 110.199L36.8108 129.441L42.1641 129.102L47.3746 109.798L49.2979 87.9303L38.5183 83.8304Z" fill="#2F2E41"/>
<path d="M42.5138 61.9181L40.1551 63.705L37.4667 69.4408L40.0519 72.9505C40.0519 72.9505 42.2264 76.7178 38.7457 80.3662C35.2651 84.0146 32.5923 87.9113 35.3782 87.7722C38.1642 87.633 49.4475 93.37 49.5217 88.6699C49.596 83.9697 49.7462 80.3662 49.7462 80.3662L52.7045 72.8657C52.7045 72.8657 54.4669 68.3912 53.2295 67.0518C51.9921 65.7124 50.3353 64.0009 50.3353 64.0009L47.3224 60.989H44.6019L42.5138 61.9181Z" fill="#0363ED"/>
<path d="M46.9168 50.8974C52.2082 53.9074 47.8642 61.8493 42.4741 59.0213C37.1829 56.0114 41.5269 48.0695 46.9168 50.8974Z" fill="#A0616A"/>
<path d="M49.7461 52.5664C49.3754 53.0484 48.6007 52.8224 47.0838 53.1664C47.0871 52.6524 47.0277 52.1399 46.9069 51.6403C46.794 52.2589 46.5467 52.8452 46.1823 53.3578C44.8651 53.5038 46.4798 57.504 45.8054 60.4451C44.9365 54.2404 43.1088 55.8659 44.0321 57.0966C44.6232 57.8845 44.2291 60.2481 42.4558 59.0663C39.5299 60.4564 35.3625 53.5512 39.9813 50.3128C39.8987 48.5623 41.8471 48.2858 43.0469 48.824C45.9586 46.6557 49.2853 49.434 49.7461 52.5664Z" fill="#2F2E41"/>
<path d="M36.1695 48.0389C34.9915 55.2796 28.6771 46.7073 25.7081 53.8328C24.7746 56.4133 26.3763 58.2593 27.3894 60.4012C27.6206 62.1614 25.3299 63.0545 25.0899 64.6748C25.0231 68.3895 31.0182 68.1622 32.6942 65.8185C34.4163 63.3651 32.3599 60.0735 33.3949 57.4401C34.8498 53.784 40.7662 53.7568 41.2816 49.5033C40.2834 48.0823 37.5992 46.4548 36.1695 48.0389Z" fill="#2F2E41"/>
<path d="M40.9417 48.7464C40.9032 48.7626 40.8646 48.7789 40.8302 48.7971H40.8281C40.7957 48.8133 40.7632 48.8295 40.7308 48.8478C40.7267 48.8498 40.7247 48.8519 40.7206 48.8539C40.678 48.8133 40.6354 48.7728 40.5908 48.7322C40.5793 48.7983 40.582 48.866 40.5989 48.9309L40.605 48.9553C40.6456 48.9978 40.6882 49.0384 40.7328 49.081C40.7734 49.0506 40.8119 49.0181 40.8525 48.9877C40.8768 48.9674 40.9012 48.9472 40.9275 48.9269C40.9316 48.8742 40.9377 48.8133 40.9437 48.7464L40.9417 48.7464ZM42.1628 46.4916C41.2581 46.2848 40.966 47.4669 40.8788 48.0367C40.5502 45.9684 39.1831 46.6193 39.6557 48.0306C39.8063 48.4485 40.0434 48.8299 40.3514 49.1499C40.394 49.1986 40.4407 49.2473 40.4894 49.2959C40.4346 49.5798 40.7105 49.5068 41.0837 49.2452C41.3593 49.0493 41.6142 48.8258 41.8444 48.5781C42.5888 47.7974 43.1689 46.7532 42.1628 46.4916ZM42.1912 47.6555C41.9121 48.0153 41.599 48.3473 41.2561 48.6471C41.1486 48.7444 41.0391 48.8377 40.9275 48.9269C40.9255 48.9451 40.9255 48.9613 40.9235 48.9755C40.9156 48.9952 40.9061 49.0142 40.8951 49.0323C40.7815 49.2371 40.6537 49.1256 40.605 48.9553C40.6009 48.9492 40.5949 48.9431 40.5908 48.937C40.4287 48.7696 40.2877 48.583 40.1709 48.3814C39.3332 46.9296 40.6821 45.9421 40.6151 48.6531C40.6028 48.678 40.5946 48.7047 40.5908 48.7322C40.5793 48.7983 40.582 48.866 40.5989 48.9309L40.605 48.9553C40.6456 48.9979 40.6882 49.0384 40.7328 49.081C40.7734 49.0506 40.8119 49.0181 40.8525 48.9877C40.8768 48.9674 40.9012 48.9472 40.9275 48.9269C40.9316 48.8742 40.9377 48.8133 40.9437 48.7464V48.7444C40.9965 48.201 41.1405 47.2236 41.4062 46.958C41.9904 46.5098 42.747 46.9945 42.1912 47.6555ZM40.9417 48.7464C40.9032 48.7626 40.8646 48.7789 40.8302 48.7971H40.8281C40.7957 48.8133 40.7632 48.8295 40.7308 48.8478C40.7267 48.8498 40.7247 48.8519 40.7206 48.8539C40.678 48.8133 40.6354 48.7728 40.5908 48.7322C40.5793 48.7983 40.582 48.866 40.5989 48.9309L40.605 48.9553C40.6456 48.9978 40.6882 49.0384 40.7328 49.081C40.7734 49.0506 40.8119 49.0181 40.8525 48.9877C40.8768 48.9674 40.9012 48.9472 40.9275 48.9269C40.9316 48.8742 40.9377 48.8133 40.9437 48.7464L40.9417 48.7464Z" fill="#2F2E41"/>
<path d="M89.8491 88.6668L87.8948 93.7616L78.7273 111.839L86.7828 132.868L90.9402 131.771L87.5135 111.839L97.3444 99.898L109.019 107.814C109.019 107.814 114.197 111.855 116.167 108.024C118.137 104.193 130.883 96.0453 130.883 96.0453L127.729 92.6828L113.052 99.5493L102.921 85.2952L89.8491 88.6668Z" fill="#2F2E41"/>
<path d="M99.7099 64.635L96.4929 61.1799L90.9745 60.421L84.2129 65.153L84.281 70.3906L87.6235 82.7327C87.6235 82.7327 86.3504 91.5998 89.9065 91.5109C93.4627 91.422 95.4011 89.6496 96.8495 90.0104C98.2979 90.3712 104.455 91.9067 104.845 90.2983C105.235 88.69 107.309 89.8416 107.218 88.3201C107.127 86.7986 101.603 75.8315 101.603 75.8315L102.977 64.8632L99.7099 64.635Z" fill="#0363ED"/>
<path d="M120.079 48.7306C120.108 49.0172 120.073 49.3065 119.978 49.5783C119.883 49.8501 119.729 50.0977 119.528 50.3038C119.327 50.5098 119.083 50.6692 118.813 50.7707C118.543 50.8723 118.255 50.9135 117.968 50.8915L110.57 64.9563L108.583 61.9083L116.145 48.6343C116.214 48.1543 116.457 47.7164 116.827 47.4033C117.198 47.0903 117.67 46.924 118.155 46.9359C118.64 46.9477 119.103 47.137 119.458 47.4678C119.813 47.7986 120.033 48.2479 120.079 48.7306Z" fill="#FFB6B6"/>
<path d="M96.7892 67.2502C96.7892 67.2502 96.4958 69.752 99.3133 70.3714C102.131 70.9907 109.936 66.5321 111.216 65.8511C111.617 65.6378 112.161 64.5926 112.718 63.2573C112.969 62.6579 113.222 62 113.467 61.3326C113.608 60.9464 114.286 60.841 114.419 60.4581C114.552 60.0772 114.14 59.4187 114.26 59.0597C114.83 57.3558 115.234 56.0041 115.234 56.0041L113.367 52.4976C110.755 53.8778 109.416 56.918 108.43 60.4206L96.7892 67.2502Z" fill="#0363ED"/>
<path d="M63.885 51.9605C63.9288 52.2451 64.0346 52.5166 64.1948 52.756C64.355 52.9953 64.5657 53.1966 64.8122 53.3457C65.0586 53.4949 65.3348 53.5881 65.6212 53.619C65.9076 53.6499 66.1973 53.6176 66.4699 53.5245L77.1534 65.2909L78.3134 61.8431L67.6692 50.8831C67.4824 50.4357 67.1378 50.0724 66.7008 49.862C66.2639 49.6516 65.7649 49.6087 65.2984 49.7415C64.8319 49.8743 64.4304 50.1736 64.1699 50.5825C63.9094 50.9915 63.808 51.4818 63.885 51.9605Z" fill="#FFB6B6"/>
<path d="M91.0698 64.0643C91.0698 64.0643 91.9802 66.4131 89.4074 67.7176C86.8347 69.0221 78.1611 66.6581 76.7517 66.3189C76.3104 66.2127 75.5223 65.3368 74.6479 64.1836C74.2553 63.6658 73.8454 63.0922 73.4416 62.5073C73.2079 62.1688 72.5255 62.2363 72.3005 61.8988C72.0768 61.5633 72.3104 60.8227 72.1043 60.5052C71.1259 58.9982 70.3965 57.7905 70.3965 57.7905L71.3266 53.9284C74.2007 54.6114 76.2587 57.2197 78.0893 60.3644L91.0698 64.0643Z" fill="#0363ED"/>
<path d="M93.8438 59.5421C96.7437 59.5421 99.0944 57.1921 99.0944 54.2933C99.0944 51.3945 96.7437 49.0446 93.8438 49.0446C90.944 49.0446 88.5933 51.3945 88.5933 54.2933C88.5933 57.1921 90.944 59.5421 93.8438 59.5421Z" fill="#FFB6B6"/>
<path d="M99.8374 51.288C99.2851 50.4338 98.2487 49.8645 97.2439 50.0245C97.1504 49.3835 96.8828 48.7805 96.4701 48.281C96.0575 47.7815 95.5157 47.4048 94.9037 47.1918C94.2917 46.9789 93.633 46.9378 92.9993 47.0732C92.3656 47.2085 91.7812 47.5151 91.3098 47.9595C91.1547 47.8503 90.9741 47.7831 90.7854 47.7642C90.5967 47.7453 90.4064 47.7755 90.2328 47.8517C89.8869 48.0089 89.5861 48.2503 89.3578 48.5538C88.7812 49.2726 88.4104 50.1341 88.2848 51.0468C88.1593 51.9595 88.2836 52.8892 88.6446 53.7368C88.5218 53.2906 88.9692 52.8707 89.4212 52.7706C89.8732 52.6705 90.3473 52.7652 90.8057 52.7C91.3932 52.6164 91.9213 52.2757 92.5097 52.1991C93.0087 52.1666 93.5092 52.2309 93.9837 52.3884C94.4582 52.5459 94.958 52.613 95.4572 52.5862C95.9525 52.5274 96.5904 54.4036 96.5818 55.725C96.5802 55.9754 96.6318 56.297 96.8766 56.3501C97.1781 56.4155 97.3528 55.9995 97.6398 55.8862C97.772 55.8483 97.9138 55.8632 98.0353 55.9278C98.1567 55.9924 98.2484 56.1016 98.2909 56.2324C98.3271 56.3653 98.331 56.505 98.3022 56.6398C98.2735 56.7746 98.2129 56.9005 98.1257 57.0072C97.9493 57.2186 97.7399 57.4002 97.5056 57.5449L97.6238 57.6432C97.7359 57.7617 97.8859 57.8375 98.0478 57.8576C98.2098 57.8777 98.3737 57.8409 98.5115 57.7534C98.7824 57.57 99.0019 57.3202 99.1489 57.0279C99.7027 56.1717 100.099 55.2233 100.318 54.2275C100.503 53.2274 100.39 52.1421 99.8374 51.288Z" fill="#2F2E41"/>
<path d="M110.047 141.642C109.886 142.119 17.7922 142.119 17.6182 141.643C17.7793 141.164 109.873 141.164 110.047 141.642Z" fill="#CCCCCC"/>
</svg>
